<svg version="1.2" xmlns="http://www.w3.org/2000/svg" viewBox="0 0 1701 1701" width="1701" height="1701">
	<style>
		.s0 { fill: #d3bcac } 
		.s1 { fill: #000000 } 
	</style>
	<g id="Page 3">
		<filter id="f0">
			<feFlood flood-color="#9d7961" flood-opacity="1" />
			<feBlend mode="normal" in2="SourceGraphic"/>
			<feComposite in2="SourceAlpha" operator="in" />
		</filter>
		<g id="Layer 876" filter="url(#f0)">
			<g id="Layer 836">
				<filter id="f1">
					<feFlood flood-color="#ffffff" flood-opacity="1" />
					<feBlend mode="normal" in2="SourceGraphic"/>
					<feComposite in2="SourceAlpha" operator="in" />
				</filter>
				<g id="Layer 805" filter="url(#f1)">
					<path id="Layer 797" fill-rule="evenodd" class="s0" d="m123.55 1031.56h-42.14c6.36 9.03 7.7 18.06 7.7 29.1v141.81c0 73.58-5.69 94.65-31.11 126.76 41.14-15.72 57.86-51.17 57.86-111.04v-27.09-130.44c0-11.04 1.34-20.07 7.69-29.1z"/>
					<path id="Layer 798" fill-rule="evenodd" class="s0" d="m303.85 1031.56h-139.47c6.35 7.36 7.69 16.05 7.69 27.09v163.22c0 11.03-1.34 19.73-7.69 27.09h151.51l11.37-35.79c-15.72 19.73-21.74 22.41-43.81 22.41h-84.62v-13.71-79.6h46.82c32.78 0 38.47 5.35 42.48 13.71v-39.47c-4.01 8.36-9.7 13.71-42.48 13.71h-46.82v-71.57-13.71h72.58c22.07 0 28.09 2.67 43.81 22.41z"/>
					<path id="Layer 799" fill-rule="evenodd" class="s0" d="m551.02 1248.96l56.52-177.27c9.7-27.09 15.39-35.45 25.42-40.13h-40.14c6.02 5.02 7.03 13.38 0.67 33.44l-45.48 142.49-53.52-150.18c-4.01-14.38-4.35-22.07 0-25.75h-45.48c6.35 6.02 11.03 14.71 16.72 30.43l3.68 10.04-43.15 135.46-53.51-150.18c-4.02-14.38-4.35-22.07 0-25.75h-45.49c6.36 6.02 11.04 14.71 16.72 30.43l67.57 186.97h17.72l48.83-152.85 55.19 152.85z"/>
					<path id="Layer 800" fill-rule="evenodd" class="s0" d="m797.51 1031.56h-139.47c6.36 7.36 7.7 16.05 7.7 27.09v163.22c0 11.03-1.34 19.73-7.7 27.09h151.51l11.38-35.79c-15.72 19.73-21.74 22.41-43.82 22.41h-84.62v-13.71-79.6h46.83c32.77 0 38.46 5.35 42.47 13.71v-39.47c-4.01 8.36-9.7 13.71-42.47 13.71h-46.83v-71.57-13.71h72.58c22.08 0 28.1 2.67 43.81 22.41z"/>
					<path id="Layer 801" fill-rule="evenodd" class="s0" d="m979.8 1235.58h-89.31v-15.72-159.2c0-11.04 1.34-21.74 7.7-29.1h-42.15c6.36 7.36 7.7 18.06 7.7 29.1v159.2c0 11.04-1.34 21.74-7.7 29.1h155.19l12.38-35.79c-15.72 19.73-21.74 22.41-43.81 22.41z"/>
					<path id="Layer 802" fill-rule="evenodd" class="s0" d="m1092.84 1031.56h-44.15c6.36 7.36 7.7 18.06 7.7 29.1v103.01c0 63.88 45.48 90.64 88.96 90.64 34.79 0 78.94-15.05 78.94-90.64v-91.98c0-29.76 1.33-35.45 8.02-40.13h-31.77c6.69 4.68 8.03 10.37 8.03 40.13v94.99c0 56.52-30.11 71.24-63.22 71.24-30.1 0-60.2-27.09-60.2-71.91v-105.35c0-11.04 1.34-21.74 7.69-29.1z"/>
					<path id="Layer 803" fill-rule="evenodd" class="s0" d="m1411.58 1042.6l6.02 42.47c-15.05-34.45-39.8-46.82-74.25-46.82-23.07 0-48.16 17.72-48.16 41.81 0 58.53 132.45 22.4 133.45 109.7 0 36.45-34.11 64.55-82.94 64.55-26.09 0-59.87-12.71-73.92-26.42l-6.02-44.15c17.39 37.46 50.5 58.19 84.95 58.19 31.78 0 50.84-23.07 50.84-47.49 0-72.24-133.45-30.1-133.45-109.37 0-39.8 39.13-58.86 79.94-58.86 14.38 0 48.49 5.68 63.54 16.39z"/>
					<path id="Layer 804" fill-rule="evenodd" class="s0" d="m1631.33 1031.56h-171.92l-12.37 35.79c15.72-19.74 21.74-22.41 43.81-22.41h39.8c1.01 5.01 1.34 10.37 1.34 15.72v159.2c0 11.04-1.34 21.74-7.69 29.1h42.14c-6.36-7.36-7.69-18.06-7.69-29.1v-159.2c0-5.35 0.33-10.71 1.33-15.72h39.8c22.08 0 28.1 2.67 43.82 22.41z"/>
				</g>
				<filter id="f2">
					<feFlood flood-color="#ffffff" flood-opacity="1" />
					<feBlend mode="normal" in2="SourceGraphic"/>
					<feComposite in2="SourceAlpha" operator="in" />
				</filter>
				<g id="Layer 835" filter="url(#f2)">
					<path id=" Jewelry &amp; bullion" class="s1" aria-label=" Jewelry &amp; bullion"  d="m184.2 1365.9c4.6 7.1 12.7 11.7 21.6 11.7 13.7 0 24-11.1 24-24.8v-32.8h-8v32.8c0 11.4-7.5 17.4-16 17.4-6.1 0-12.7-3.4-16.6-8.4zm84 10h43.2v-7.2h-35.2v-17.2h33.6v-7.2h-33.6v-17.2h35.2v-7.2h-43.2zm96.4 0h8.4l13.8-43.9 13.8 43.9h8.4l19.6-56h-8.4l-15.6 44.6-14-44.6h-7.6l-14 44.6-15.6-44.6h-8.4zm97.6 0h43.2v-7.2h-35.2v-17.2h33.6v-7.2h-33.6v-17.2h35.2v-7.2h-43.2zm81 0h41.6v-7.2h-33.6v-48.8h-8zm118.4 0h10l-19.2-20.8c9.6 0 17.2-7.9 17.2-17.6 0-9.6-7.6-17.6-17.2-17.6h-31.2v56h8v-20.8h13.2zm-10-28h-22.4v-20.8h22.4c5.7 0 10.4 4.7 10.4 10.4 0 5.8-4.7 10.4-10.4 10.4zm70.5 28h8v-20.8l23-35.2h-8.6l-18.4 28-18.4-28h-8.5l22.9 35.2zm141.2 1.6c7.1 0 13.3-2.8 18.5-6.5 1.8 1.9 3.5 3.5 5 4.9h10c-2.6-2.5-6-5.8-9.6-9.5 4.2-3.9 7.5-8.2 9.6-11.2l-5.5-4.6c-2.1 2.9-5.2 7-9.1 10.8-3.6-3.7-7.3-7.5-10.6-11.1 10.3-4.4 12.2-11.6 12.2-16.5 0-9.3-7.2-15.5-16.6-15.5-9.2 0-18 7.2-14.9 18.4 0.5 2.2 2.9 5.6 6.3 9.6-7.8 2.4-15.2 6.8-15.4 14.6-0.2 10.6 8.5 16.6 20.1 16.6zm-12.1-15.7c0-5.5 6-7.7 12.9-9.1 4 4.4 8.5 9 12.6 13.2-3.9 2.6-8.3 4.4-13.1 4.4-5.2 0-12.4-2.1-12.4-8.5zm9.1-25.9c-2.3-7.7 3.6-10.4 6.9-10.4 5.3 0 8.7 3.6 8.7 8.8 0 3.9-1.9 8-9.5 10.2-3.3-3.8-5.6-7-6.1-8.6zm132.9 40h32.1c8.7 0 15.8-7 15.8-15.7 0-5.7-2.9-9.9-7.3-12.3 4.4-2.3 7.3-6.5 7.3-12.2 0-8.7-7.1-15.8-15.8-15.8h-32.1zm8-7.2v-17.2h23.3c4.8 0 8.9 3.9 8.9 8.7 0 4.8-4.1 8.5-8.9 8.5zm23.4-41.6c4.8 0 8.9 3.8 8.9 8.6 0 4.8-4.1 8.6-8.9 8.6h-23.4v-17.2zm52.9 24.8c0 14.2 11.4 25.6 25.6 25.6 14.1 0 25.6-11.4 25.6-25.6v-32h-8v32c0 9.7-7.3 18.1-17.6 18.1-10.4 0-17.6-8.4-17.6-18.1v-32h-8zm89.8 24h41.6v-7.2h-33.6v-48.8h-8zm77 0h41.6v-7.2h-33.6v-48.8h-8zm78 0h8v-56h-8zm73.4 1.6c16.3 0 29.6-13.2 29.6-29.6 0-16.3-13.3-29.6-29.6-29.6-16.4 0-29.6 13.3-29.6 29.6 0 16.4 13.2 29.6 29.6 29.6zm-21.6-29.6c0-12.4 9.2-22.2 21.6-22.2 12.4 0 21.6 9.8 21.6 22.2 0 12.4-9.2 22.3-21.6 22.3-12.4 0-21.6-9.9-21.6-22.3zm87.2 28h8v-44.3l35.2 44.3h8v-56h-8v44.4l-35.2-44.4h-8z"/>
					<path id="Layer 833" fill-rule="evenodd" class="s0" d="m179.91 1351.07q0.02 0 0.02 0.02v0.02q0 0.01-0.01 0.01-1.23 0-1.56 0.02-9.74 0.65-17.15 6.99c-0.5 0.42-1.23 1.1-1.77 1.65-4.72 4.85-7.69 11.3-8.21 18.09q-0.03 0.44-0.08 1.21-0.01 0.04-0.05 0.05-0.04 0-0.05-0.04c-0.01-0.59-0.05-1.34-0.1-1.82q-1.04-9.39-7.15-16.39-1.89-2.17-4.41-4.05c-4.83-3.62-10.55-5.58-16.59-5.72q-0.01-0.01-0.02-0.02v-0.03q0-0.01 0.01-0.01 0.75 0 1.13-0.02 6.94-0.44 12.86-3.92c8.82-5.19 14.32-14.81 14.3-25.13q0-0.03 0.02-0.03 0.02 0 0.02 0.02-0.02 0.46 0.02 1.13 0.43 8.34 4.84 14.99c3.05 4.6 7.26 8.22 12.26 10.46q5.57 2.5 11.67 2.52z"/>
					<path id="Layer 834" fill-rule="evenodd" class="s0" d="m1578.05 1351.07q0.01 0 0.02 0.02v0.02q-0.01 0.01-0.01 0.01-1.24 0-1.57 0.02-9.74 0.65-17.15 6.99c-0.5 0.42-1.22 1.1-1.76 1.65-4.73 4.85-7.7 11.3-8.22 18.09q-0.03 0.44-0.08 1.21-0.01 0.04-0.05 0.05-0.04 0-0.05-0.04c-0.01-0.59-0.05-1.34-0.1-1.82q-1.04-9.39-7.15-16.39-1.89-2.17-4.4-4.05c-4.84-3.62-10.56-5.58-16.6-5.72q-0.01-0.01-0.02-0.02v-0.03q0-0.01 0.01-0.01 0.75 0 1.13-0.02 6.94-0.44 12.86-3.92c8.82-5.19 14.32-14.81 14.3-25.13q0-0.03 0.02-0.03 0.02 0 0.02 0.02-0.02 0.46 0.02 1.13 0.43 8.34 4.84 14.99c3.05 4.6 7.26 8.22 12.27 10.46q5.56 2.5 11.67 2.52z"/>
				</g>
			</g>
			<filter id="f3">
				<feFlood flood-color="#ffffff" flood-opacity="1" />
				<feBlend mode="normal" in2="SourceGraphic"/>
				<feComposite in2="SourceAlpha" operator="in" />
			</filter>
			<g id="Layer 875" filter="url(#f3)">
				<g id="Layer 852">
					<g id="Layer 844">
						<path id="Layer 840" fill-rule="evenodd" class="s0" d="m840.31 470.86l-51.15 24.8c9.81 11.88 11.88 24.8 11.88 55.28v90.93c0 113.67-8.78 146.22-48.05 195.82 62.52-24.28 87.32-79.05 87.32-171.53v-41.85-108.5z"/>
						<path id="Layer 841" fill-rule="evenodd" class="s0" d="m775.72 499.92l-51.15 24.8c9.82 11.88 11.89 24.8 11.89 55.28v90.94c0 113.66-8.79 146.22-48.05 195.82 62.51-24.29 87.31-79.05 87.31-171.54v-41.85-108.5z"/>
						<path id="Layer 842" fill-rule="evenodd" class="s0" d="m860.33 470.86l51.15 24.8c-9.82 11.88-11.88 24.8-11.88 55.28v90.93c0 113.67 8.78 146.22 48.05 195.82-62.52-24.28-87.32-79.05-87.32-171.53v-41.85-108.5z"/>
						<path id="Layer 843" fill-rule="evenodd" class="s0" d="m924.47 500.01l51.15 24.8c-9.81 11.88-11.88 24.8-11.88 55.28v90.94c0 113.67 8.78 146.22 48.05 195.82-62.52-24.29-87.32-79.05-87.32-171.54v-41.85-108.5z"/>
					</g>
					<g id="Layer 851">
						<path id="Layer 846" fill-rule="evenodd" class="s0" d="m835.76 391.44h-18.46c-0.05 0-0.08-0.05-0.06-0.09l31.75-68.28c0.03-0.07 0.12-0.05 0.12 0.02v39.71q0 0.01-0.01 0.03l-13.29 28.57q-0.01 0.04-0.05 0.04z"/>
						<path id="Layer 847" fill-rule="evenodd" class="s0" d="m882.98 391.44h-18.46q-0.04 0-0.06-0.03l-13.29-28.6q-0.01-0.01-0.01-0.02v-39.73c0-0.06 0.1-0.08 0.12-0.02l31.76 68.31q0.02 0.08-0.06 0.09z"/>
						<path id="Layer 848" fill-rule="evenodd" class="s0" d="m850.23 365.66l12.65 27.22q0.02 0.04 0 0.08l-12.65 27.22c-0.04 0.08-0.15 0.08-0.19 0l-12.65-27.22q-0.01-0.05 0-0.09l12.66-27.21c0.03-0.08 0.14-0.08 0.18 0z"/>
						<path id="Layer 849" fill-rule="evenodd" class="s0" d="m816.88 393.48h18.44q0.05 0 0.07 0.04l13.71 29.51q0.01 0.01 0.01 0.03v39.67c0 0.08-0.11 0.1-0.14 0.03l-32.15-69.18c-0.02-0.05 0.01-0.1 0.06-0.1z"/>
						<path id="Layer 850" fill-rule="evenodd" class="s0" d="m864.95 393.48h18.46c0.05 0 0.08 0.05 0.06 0.1l-32.17 69.2c-0.04 0.07-0.14 0.04-0.14-0.03v-39.69q0-0.01 0.01-0.03l13.72-29.51q0.02-0.04 0.06-0.04z"/>
					</g>
				</g>
			</g>
		</g>
	</g>
</svg>