<svg version="1.2" xmlns="http://www.w3.org/2000/svg" viewBox="0 0 14583 10417" width="14583" height="10417">
	<style>
		.s0 { fill: #ffffff } 
		.s1 { fill: #01b2b2 } 
	</style>
	<g id="Page 6">
		<filter id="f0">
			<feFlood flood-color="#435466" flood-opacity="1" />
			<feBlend mode="normal" in2="SourceGraphic"/>
			<feComposite in2="SourceAlpha" operator="in" />
		</filter>
		<g id="Layer 705" filter="url(#f0)">
			<path id="Layer 697" fill-rule="evenodd" class="s0" d="m1563.7 8433.27v-175.29h-682.58l664.96-1252.12h-885.7v175.3h583.36l-658.47 1252.11z"/>
			<path id="Layer 698" fill-rule="evenodd" class="s0" d="m3120.63 8433.27v-1427.41h-199.39v560.21h-611.19v-560.21h-199.39v1427.41h199.39v-691.9h611.19v691.9z"/>
			<path id="Layer 699" fill-rule="evenodd" class="s0" d="m4769.37 8433.27v-1427.41h-199.4v560.21h-611.18v-560.21h-199.39v1427.41h199.39v-691.9h611.18v691.9z"/>
			<path id="Layer 700" fill-rule="evenodd" class="s0" d="m6975.42 6991.03c-392.3 0-687.22 312.56-687.22 727.15 0 423.86 288.43 729.01 687.22 729.01 169.73 0 322.75-61.22 430.33-177.15 125.21-133.56 182.71-323.7 167.87-549.08h-602.83v175.3h407.13c0.94 96.46-32.45 181.78-100.15 249.49-82.54 84.41-197.55 127.07-302.35 127.07-307.9 0-487.83-281.03-487.83-554.64 0-147.48 49.16-285.67 139.12-388.62 90.89-103.88 215.16-161.39 348.71-161.39 135.41 0 258.76 51.02 351.5 140.99l137.26-110.38c-127.06-131.7-305.13-207.75-488.76-207.75z"/>
			<path id="Layer 701" fill-rule="evenodd" class="s0" d="m8385.81 7180.23h184.56c34.32 0 100.17 5.57 154.89 46.38 58.42 42.67 86.24 111.3 86.24 203.12 0 82.55-25.04 149.33-71.41 193.84-43.59 41.74-105.73 64-178.06 64h-176.22zm309.77 666.87c191.98-54.72 315.32-221.67 315.32-417.37 0-250.43-180.84-423.87-440.53-423.87h-383.95v1427.41h199.39v-575.04h95.53l394.15 575.04h237.43z"/>
			<path id="Layer 702" fill-rule="evenodd" class="s0" d="m10233.96 8272.82c-308.84-5.57-488.77-271.75-488.77-554.64 0-284.74 199.4-550.93 487.84-550.93 301.41 0 488.75 281.95 488.75 550.93 0 289.38-193.83 560.21-487.82 554.64zm-0.93-1281.79c-391.37 0-687.23 312.56-687.23 727.15 0 423.86 289.36 729.01 688.16 729.01 397.86 0 687.22-305.15 687.22-729.01 0-414.59-295.85-727.15-688.15-727.15z"/>
			<path id="Layer 703" fill-rule="evenodd" class="s0" d="m11508.93 7919.44c0 256 133.56 527.75 506.39 527.75 372.83 0 505.44-271.75 505.44-527.75v-913.58h-199.39v913.58c0 202.2-103.88 354.3-306.05 354.3-212.39 0-306.05-169.72-306.05-354.3v-913.58h-200.34z"/>
			<path id="Layer 704" fill-rule="evenodd" class="s0" d="m13720.63 7620.8c-45.44 43.59-106.66 66.77-172.5 66.77h-189.19v-506.41h206.81c87.18 0 231.85 31.54 231.85 243.01 0 81.62-25.96 149.32-76.97 196.63zm-561.1-614.94v1427.41h199.41v-570.4h189.19c124.28 0 255.04-51.94 332.95-133.56 76.04-77.91 116.85-187.35 116.85-305.14 0-254.14-169.72-418.31-432.18-418.31z"/>
		</g>
		<g id="Layer 709">
			<path id="Layer 707" fill-rule="evenodd" class="s1" d="m7712.43 1710.53c1.14-0.63 1.08-2.3-0.07-2.87-20.62-10.51-31.07-15.8-31.31-15.97q-250.39-143.38-383.78-219.97c-5.35-3.05-11.96-2.25-19.88 2.29-374.48 215.21-903.97 518.54-1588.42 909.94-3.56 2.07-7.99-0.57-7.99-4.66 0.06-11.6-0.34-39.06-1.09-82.32-1.32-71.81-0.29-149.42 3-232.84q0.51-13.77 9.64-19.02c223.06-128.4 446.47-256.62 670.1-384.56 3.68-2.07 5.98-5.97 5.98-10.22v-480.16c0-3.1-3.4-5.12-6.09-3.57l-672.23 385.2c-4.31 2.47-9.65-0.98-9.13-5.92 2.36-23.03-0.98-45.9-1.21-67.44-0.91-88.19-0.06-171.54 2.58-249.96 0.18-5.52 3.22-10.52 7.99-13.33q953.61-549.54 1587.44-915.11c8.91-5.11 18.61-4.59 29.07 1.61 26.48 15.8 82.49 48.14 168.03 97.09 530.5 303.79 1003.96 575.69 1420.33 815.66 4.48 2.59 7.07 7.58 6.49 12.75-2.47 23.21 3.1 50.16 1.61 72.51-1.9 28.9-3.44 49.8-4.54 62.61-0.4 4.95-3.22 9.31-7.52 11.79l-2114.91 1211.82c-4.65 2.7-4.65 9.37 0 12.07l503.34 288.51c5.91 3.38 13.15 3.38 19.07 0l1594.57-913.68c4.13-2.35 9.19 0.87 8.78 5.64-2.41 27.4 1.78 51.07 1.78 76.06q0.08 158.73 0.06 174.93c0.06 22.64-4.76 45.55-2.18 67.85 0.63 5.4-2.02 10.68-6.78 13.38l-680.89 390.2c-4.55 2.59-7.3 7.41-7.3 12.58v467.69c0 1.44 0.63 2.76 1.67 3.73q4.55 3.89 11.94-0.69c12.58-7.69 20.85-12.69 24.87-15.04q91.36-52.14 619.15-353.83c9.94-5.63 22.23-10.34 33.14-15.46 3.11-1.44 6.61 1.09 6.21 4.48l-2.7 23.56c-0.23 1.78-0.23 3.5 0 5.28 6.72 56.36-0.05 112.95-0.05 164.54q-0.1 1095.36 0 1634.65c0 3.74-2.07 7.18-5.41 8.91l-364.43 192.33c-3.51 1.84-7.76-0.69-7.76-4.65l-4.65-1468.91c0-4.02-4.31-6.55-7.81-4.54l-299.46 171.6c-4.88 2.81-7.93 8.04-7.88 13.67l4.66 1458.29c0 3.27-1.84 6.32-4.77 7.87l-346 182.57c-2.57 1.38-5.68-0.51-5.68-3.44l-4.59-1444.1c0-3.16-3.39-5.11-6.09-3.56l-370.7 212.45c-3.38 1.95-5.51 5.57-5.51 9.53v1429.1c0 4.77-2.64 9.13-6.89 11.32-68.48 36.02-118.8 62.74-151.03 80.2-12.35 6.66-25.56 6.03-39.58-1.95-15.85-9.02-65.88-35.34-150.1-79.05-4.66-2.41-7.59-7.24-7.64-12.53l-4.54-1430.77c0-4.19-2.3-8.1-5.97-10.17l-374.43-214.62c-4.71-2.7-10.57 0.68-10.57 6.08l4.6 1441.92c0 4.08-4.32 6.72-7.93 4.82l-336.86-178.2c-3.45-1.84-5.64-5.46-5.64-9.37 0-845.36-0.05-1330.4-0.23-1455.13-0.05-16.83-9.36-17.11-20.62-23.66-68.64-39.87-178.31-103.7-328.93-191.54q-4.13-2.41-7.75-2.41c-2.25-0.06-4.08 1.78-4.08 4.02v1479.83c0 2.13-2.24 3.45-4.14 2.48l-314-167.82c-1.37-0.75-2.63-1.78-3.61-3.04q-2.17-2.67-2.18-20.68-0.54-288.26-1.32-1345.69c-0.07-36.48-0.87-101.63-2.48-195.33q-1.56-93.65 1.9-195.84c0.06-1.78 0.69-3.5 1.72-4.94 3.16-4.31 8.62-8.62 16.26-12.98 732.48-420.13 1403.56-804.75 2013.35-1153.87zm722.42-422.36q-77.64-44.46-211.62-120.36c-254.89-144.37-559.52-318.67-914.02-522.84-18.15-10.4-24.41-8.39-41.01 1.21q-130.46 75.49-540.62 311.37c-2.06 1.2-3.79 2.93-5 5.05-6.43 11.55-3.73 22.35-3.73 34.81q0.01 233.45-0.4 444.83c0 6.84 7.23 11.2 13.26 7.99 8.33-4.48 16.73-11.95 24.54-16.37 209.1-119.21 381.55-218.19 517.29-296.96 9.93-5.8 19.82-5.86 29.52-0.28q241.79 139.08 698.66 400.7c4.19 2.41 9.3 2.41 13.5 0l419.63-240.48c3.33-1.89 3.33-6.72 0-8.67zm-594.56 1628.39c-2.12 0.05-4.25 0.69-6.26 1.84-32.22 18.04-209.96 119.83-533.27 305.45-7.4 4.31-14.99 4.26-22.68-0.17q-568.38-324.79-798.73-457.06c-5.9-3.39-13.26-3.39-19.23 0l-403.45 231.17c-4.59 2.65-4.59 9.25 0 11.9l1223.71 701.39c5.45 3.1 12.11 3.1 17.52 0q229.54-131.58 531.31-303.51c4.77-2.7 8.49-4.99 11.08-6.83 3.8-2.64 6.03-7.01 6.03-11.61v-466.83c0-3.27-2.75-5.91-6.03-5.74z"/>
			<path id="Layer 708" fill-rule="evenodd" class="s1" d="m5682.48 4952.15c0-1.78 1.49-3.21 3.27-3.1q10.09 0.62 24.99 8.56c458.82 242.72 980.42 518.19 1564.81 826.46 7.53 3.97 13.96 4.49 19.3 1.67 86.11-44.87 611.39-319.93 1575.89-825.26 9.37-4.88 18.79-8.5 28.39-10.74 2.81-0.69 5.45 1.72 5.05 4.59l-3.11 23.16c-0.05 0.39-0.11 0.74-0.11 1.15l0.4 331.48c0 5.97-3.33 11.49-8.62 14.19-555.38 285.81-1088.86 560.99-1600.42 825.42q-9.22 4.76-20.67-1.26-1154.65-609.5-1585.16-836.4c-1.78-0.92-2.86-2.76-2.86-4.77z"/>
		</g>
		<g id="Layer 721">
			<path id="Layer 711" fill-rule="evenodd" class="s1" d="m3859.88 9519.64h55.16v-168.23h231.64v168.23h55.16v-386.1h-55.16v168.23h-231.64v-168.23h-55.16z"/>
			<path id="Layer 712" fill-rule="evenodd" class="s1" d="m4767.4 9530.67c-112.85 0-204.07-91.22-204.07-204.08 0-112.85 91.22-204.08 204.07-204.08 112.85 0 204.07 91.23 204.07 204.08 0 112.86-91.22 204.08-204.07 204.08zm148.91-204.07c0-84.8-66.56-153.34-148.91-153.34-82.35 0-148.91 68.54-148.91 153.34 0 84.79 66.56 153.33 148.91 153.33 82.35 0 148.91-68.54 148.91-153.33z"/>
			<path id="Layer 713" fill-rule="evenodd" class="s1" d="m5334.7 9519.64h286.79v-49.64h-231.64v-336.46h-55.15z"/>
			<path id="Layer 714" fill-rule="evenodd" class="s1" d="m5972.15 9519.64v-386.1h137.89c112.52 0 204.06 80.54 204.06 193.05 0 112.52-91.54 193.05-204.06 193.05zm55.15-336.45v286.81h82.73c85.49 0 148.91-57.92 148.91-143.41 0-85.49-63.42-143.4-148.91-143.4z"/>
			<path id="Layer 715" fill-rule="evenodd" class="s1" d="m6732.5 9133.55v386.09h-55.16v-386.09z"/>
			<path id="Layer 716" fill-rule="evenodd" class="s1" d="m7115.52 9519.64h55.15v-305.56l242.68 305.56h55.15v-386.1h-55.15v305.57l-242.68-305.57h-55.15z"/>
			<path id="Layer 717" fill-rule="evenodd" class="s1" d="m8029.27 9530.67c112.51 0 204.07-91.56 204.07-204.08q0-12.41-1.66-24.82h-202.41v49.64h152.23c-8.28 75.02-73.36 128.52-152.23 128.52-85.48 0-148.91-67.85-148.91-153.34 0-85.49 63.43-153.33 147.81-153.33 50.19 0 94.86 24.27 125.75 59.02l36.95-30.34c-37.5-48.54-95.96-79.43-161.6-79.43-112.51 0-204.06 91.57-204.06 204.08 0 112.52 91.55 204.08 204.06 204.08z"/>
			<path id="Layer 718" fill-rule="evenodd" class="s1" d="m9109.15 9519.64h286.79v-49.64h-231.64v-336.46h-55.15z"/>
			<path id="Layer 719" fill-rule="evenodd" class="s1" d="m9752.89 9519.64h286.8v-49.64h-231.64v-336.46h-55.16z"/>
			<path id="Layer 720" fill-rule="evenodd" class="s1" d="m10561.12 9530.67c65.63 0 124.1-30.89 161.6-79.42l-36.95-30.34c-30.89 34.75-75.56 59.02-125.75 59.02-84.38 0-147.81-67.85-147.81-153.34 0-85.49 63.43-153.33 147.81-153.33 50.19 0 94.86 24.27 125.75 59.02l36.95-30.34c-37.5-48.54-95.97-79.43-161.6-79.43-112.51 0-204.07 91.57-204.07 204.08 0 112.52 91.56 204.08 204.07 204.08z"/>
		</g>
	</g>
</svg>