<svg version="1.2" xmlns="http://www.w3.org/2000/svg" viewBox="0 0 14583 10417" width="14583" height="10417">
	<style>
		.s0 { fill: #01b1b1 } 
		.s1 { fill: #435466 } 
		.s2 { fill: #01b2b2 } 
	</style>
	<path id="Real estates" class="s0" aria-label="Real estates"  d="m3397.5 9734h121.6l-233.5-252.9c117.8 0 210.2-96.3 210.2-214.1 0-117.7-92.4-214-210.2-214h-379.4v681h97.3v-252.9h160.5zm-121.6-340.5h-272.4v-253h272.4c70.1 0 126.5 56.5 126.5 126.5 0 70-56.4 126.5-126.5 126.5zm452.4 340.5h525.3v-87.6h-428.1v-209.2h408.6v-87.5h-408.6v-209.2h428.1v-87.5h-525.3zm1308.7 0h102.2l-296.7-681h-102.2l-296.7 681h102.2l63.2-145.9h364.8zm-389.1-233.5l144-330.8 143 330.8zm690.3 233.5h505.9v-87.6h-408.6v-593.4h-97.3zm1207 0h525.3v-87.6h-428v-209.1h408.6v-87.6h-408.6v-209.2h428v-87.5h-525.3zm744.5-119.7c69.1 77.8 186.8 139.1 319.1 139.1 181 0 292.8-92.4 292.8-191.6 0-156.6-181.9-192.6-311.3-214-123.5-21.4-214-41.9-214-122.6 0-47.7 57.4-102.2 184.8-105.1h8.8c83.7 0 173.2 27.3 260.7 102.2l60.3-49.6c-69-77.9-186.7-139.2-319.1-139.2-180.9 0-292.8 92.5-292.8 191.7 0 156.6 181.9 192.6 311.3 214 123.6 21.4 214.1 41.8 214.1 122.6 0 47.7-57.4 102.1-184.9 105.1h-8.7c-83.7 0-173.2-27.3-260.8-102.2zm1035.3 119.7h97.3v-593.5h262.6v-87.5h-622.6v87.5h262.7zm1007 0h102.2l-296.8-680.9h-102.1l-296.7 680.9h102.1l63.3-145.9h364.8zm-389.2-233.5l144-330.7 143 330.7zm798.1 233.5h97.3v-593.4h262.7v-87.6h-622.6v87.6h262.6zm578.3 0h525.3v-87.6h-428v-209.1h408.5v-87.6h-408.5v-209.1h428v-87.6h-525.3zm745.5-119.7c69.1 77.9 186.8 139.2 319.1 139.2 180.9 0 292.8-92.5 292.8-191.7 0-156.6-181.9-192.6-311.3-214-123.6-21.4-214-41.9-214-122.6 0-47.7 57.4-102.1 184.8-105.1h8.8c83.6 0 173.1 27.3 260.7 102.2l60.3-49.6c-69.1-77.9-186.8-139.1-319.1-139.1-180.9 0-292.8 92.4-292.8 191.6 0 156.6 181.9 192.6 311.3 214 123.5 21.4 214 41.9 214 122.6 0 47.7-57.4 102.2-184.8 105.1h-8.8c-83.6 0-173.1-27.3-260.7-102.2z"/>
	<g id="Page 5">
		<g id="Layer 676">
			<path id="Layer 668" fill-rule="evenodd" class="s1" d="m6177.71 8432.27v-175.29h-682.59l664.97-1252.12h-885.7v175.3h583.36l-658.48 1252.11z"/>
			<path id="Layer 669" fill-rule="evenodd" class="s1" d="m7734.64 8432.27v-1427.41h-199.41v560.21h-611.17v-560.21h-199.4v1427.41h199.4v-691.9h611.17v691.9z"/>
			<path id="Layer 670" fill-rule="evenodd" class="s1" d="m9383.38 8432.27v-1427.41h-199.4v560.21h-611.17v-560.21h-199.4v1427.41h199.4v-691.9h611.17v691.9z"/>
		</g>
		<g id="Layer 680">
			<path id="Layer 678" fill-rule="evenodd" class="s2" d="m7712.42 1711.53c1.15-0.63 1.1-2.29-0.05-2.87-20.62-10.52-31.08-15.8-31.31-15.97q-250.4-143.38-383.78-219.98c-5.35-3.04-11.95-2.23-19.88 2.3q-561.74 322.82-1588.42 909.94c-3.56 2.06-7.99-0.57-7.99-4.66 0.06-11.6-0.34-39.06-1.08-82.32-1.33-71.81-0.3-149.42 2.97-232.84q0.53-13.78 9.66-19.02c223.06-128.39 446.46-256.62 670.09-384.56 3.69-2.07 5.98-5.97 5.98-10.23v-480.15c0-3.11-3.39-5.12-6.09-3.57l-672.22 385.2c-4.31 2.47-9.65-0.98-9.13-5.92 2.34-23.04-0.99-45.9-1.21-67.45-0.93-88.18-0.05-171.53 2.59-249.95 0.17-5.52 3.21-10.52 7.98-13.33 635.74-366.36 1164.87-671.41 1587.44-915.11 8.91-5.11 18.61-4.59 29.07 1.61q39.72 23.69 168.02 97.09 795.78 455.7 1420.34 815.66c4.48 2.58 7.06 7.59 6.49 12.75-2.47 23.22 3.1 50.16 1.61 72.51-1.9 28.89-3.45 49.8-4.54 62.61-0.4 4.95-3.21 9.31-7.52 11.79l-2114.91 1211.82c-4.66 2.71-4.66 9.37 0 12.07l503.33 288.51c5.92 3.39 13.17 3.39 19.08 0l1594.56-913.68c4.14-2.35 9.2 0.87 8.8 5.64-2.42 27.4 1.78 51.07 1.78 76.06q0.06 158.73 0.05 174.93c0.06 22.64-4.76 45.56-2.18 67.85 0.63 5.4-2.02 10.68-6.78 13.38l-680.9 390.2c-4.54 2.58-7.3 7.41-7.3 12.58v467.69c0 1.44 0.63 2.76 1.67 3.73 3.05 2.59 7.01 2.36 11.95-0.68 12.58-7.7 20.85-12.7 24.88-15.05 60.88-34.77 267.29-152.71 619.14-353.83 9.93-5.63 22.23-10.35 33.14-15.46 3.11-1.43 6.61 1.09 6.21 4.48l-2.7 23.56c-0.23 1.78-0.23 3.5 0 5.28 6.72 56.36-0.06 112.94-0.06 164.54q-0.08 1095.37 0 1634.65c0 3.74-2.07 7.19-5.4 8.9l-364.43 192.34c-3.51 1.84-7.76-0.68-7.76-4.64l-4.64-1468.92c0-4.02-4.32-6.55-7.82-4.54l-299.46 171.6c-4.88 2.81-7.93 8.04-7.87 13.67l4.65 1458.29c0 3.27-1.84 6.32-4.77 7.87l-345.99 182.58c-2.59 1.37-5.68-0.52-5.68-3.45l-4.61-1444.1c0-3.16-3.38-5.12-6.08-3.56l-370.7 212.44c-3.39 1.96-5.51 5.58-5.51 9.54v1429.1c0 4.77-2.64 9.14-6.89 11.32-68.48 36.02-118.81 62.73-151.03 80.2-12.35 6.66-25.56 6.03-39.58-1.95-15.85-9.02-65.89-35.34-150.1-79.06-4.66-2.41-7.59-7.23-7.64-12.52l-4.54-1430.77c0-4.19-2.3-8.1-5.97-10.16l-374.43-214.63c-4.71-2.7-10.58 0.68-10.58 6.09l4.6 1441.91c0 4.08-4.31 6.72-7.93 4.82l-336.86-178.2c-3.44-1.84-5.63-5.46-5.63-9.37 0-845.36-0.05-1330.4-0.22-1455.12-0.06-16.84-9.37-17.12-20.63-23.67-68.64-39.87-178.31-103.7-328.93-191.54q-4.13-2.41-7.75-2.41c-2.24-0.06-4.09 1.78-4.09 4.02v1479.83c0 2.13-2.23 3.45-4.12 2.47l-314.01-167.81c-1.37-0.75-2.63-1.77-3.62-3.04-1.42-1.78-2.17-8.68-2.17-20.69q-0.54-288.24-1.32-1345.68c-0.07-36.48-0.87-101.63-2.48-195.33q-1.55-93.66 1.9-195.84c0.06-1.78 0.69-3.5 1.72-4.94 3.16-4.31 8.62-8.62 16.26-12.98 732.48-420.13 1403.56-804.75 2013.33-1153.87zm722.44-422.37q-77.64-44.44-211.63-120.35c-254.88-144.37-559.51-318.67-914.01-522.85-18.15-10.4-24.41-8.38-41.02 1.21-86.96 50.33-267.18 154.14-540.61 311.38-2.07 1.2-3.79 2.93-5 5.06-6.44 11.54-3.74 22.34-3.74 34.81q0.01 233.44-0.39 444.82c0 6.84 7.23 11.21 13.27 7.99 8.33-4.49 16.71-11.95 24.52-16.37q313.67-178.81 517.3-296.95c9.93-5.81 19.82-5.87 29.52-0.3q241.8 139.09 698.66 400.71c4.19 2.41 9.3 2.41 13.49 0l419.64-240.48c3.33-1.9 3.33-6.72 0-8.68zm-594.56 1628.4c-2.12 0.06-4.25 0.68-6.26 1.84-32.23 18.04-209.96 119.83-533.26 305.46q-11.13 6.46-22.7-0.18c-378.9-216.52-645.16-368.88-798.72-457.06-5.91-3.39-13.26-3.39-19.24 0l-403.43 231.17c-4.6 2.64-4.6 9.25 0 11.89l1223.69 701.4c5.46 3.1 12.13 3.1 17.53 0q229.55-131.59 531.31-303.51c4.76-2.7 8.5-4.99 11.08-6.83 3.79-2.64 6.03-7.01 6.03-11.61v-466.83c0-3.27-2.76-5.91-6.03-5.74z"/>
			<path id="Layer 679" fill-rule="evenodd" class="s2" d="m5682.49 4953.15c0-1.78 1.49-3.21 3.27-3.1 6.73 0.4 15.05 3.27 24.99 8.56q688.23 364.07 1564.81 826.46c7.52 3.97 13.96 4.48 19.3 1.66 86.11-44.86 611.39-319.92 1575.9-825.25 9.36-4.88 18.78-8.5 28.37-10.74 2.82-0.69 5.46 1.72 5.06 4.59l-3.11 23.15c-0.05 0.41-0.11 0.75-0.11 1.15l0.4 331.49c0 5.97-3.33 11.48-8.62 14.19-555.38 285.81-1088.87 560.98-1600.42 825.42q-9.22 4.76-20.67-1.26-1154.66-609.5-1585.15-836.4c-1.78-0.92-2.87-2.76-2.87-4.77z"/>
		</g>
	</g>
</svg>